<?xml version="1.0" standalone="no"?>
<!DOCTYPE svg PUBLIC "-//W3C//DTD SVG 20010904//EN"
 "http://www.w3.org/TR/2001/REC-SVG-20010904/DTD/svg10.dtd">
<svg version="1.0" xmlns="http://www.w3.org/2000/svg"
 width="136.000000pt" height="136.000000pt" viewBox="0 0 136.000000 136.000000"
 preserveAspectRatio="xMidYMid meet">
<metadata>
Created by potrace 1.14, written by Peter Selinger 2001-2017
</metadata>
<g transform="translate(0.000000,136.000000) scale(0.100000,-0.100000)"
fill="#000000" stroke="none">
<path d="M39 1347 c-9 -7 -21 -22 -27 -34 -16 -30 -17 -1070 -1 -1128 16 -58
66 -120 124 -152 43 -24 61 -28 125 -28 63 1 81 5 115 27 60 39 80 59 106 108
l24 45 3 550 c2 383 -1 557 -8 576 -6 14 -23 31 -36 38 -36 16 -404 15 -425
-2z m301 -242 l0 -85 -85 0 -85 0 0 85 0 85 85 0 85 0 0 -85z m0 -340 l0 -85
-85 0 -85 0 0 85 0 85 85 0 85 0 0 -85z m-34 -473 c28 -36 -4 -102 -49 -102
-31 0 -67 35 -67 65 0 36 38 68 74 61 16 -3 35 -14 42 -24z"/>
<path d="M825 1166 c-16 -8 -75 -59 -130 -115 l-100 -101 0 -351 c0 -193 2
-352 6 -354 3 -2 135 125 292 283 263 264 287 291 287 322 0 30 -15 49 -142
176 -79 78 -152 145 -163 148 -11 3 -33 -1 -50 -8z"/>
<path d="M740 255 l-255 -255 416 2 417 3 21 25 c19 23 20 38 21 218 0 208 -7
244 -54 256 -12 3 -86 6 -166 6 l-145 0 -255 -255z"/>
</g>
</svg>
